<svg width="17" height="19" viewBox="0 0 17 19" fill="none" xmlns="http://www.w3.org/2000/svg">
<path d="M6.93344 2.197C7.03055 1.65778 6.80055 0.804224 7.48544 0.592113C8.201 0.492447 8.96 0.43878 9.66278 0.650891C10.1841 0.975447 9.96689 1.68589 10.0666 2.197C11.9423 2.611 13.7108 3.58467 14.9426 5.07711C16.9998 7.45378 17.5109 11.0188 16.2152 13.881C14.7458 17.3744 10.7361 19.5364 7.01011 18.7953C3.01067 18.1488 -0.137779 14.2924 0.0768881 10.2368C0.115221 6.37278 3.16144 2.90745 6.93344 2.197ZM7.07144 3.75078C3.86422 4.36156 1.40578 7.50745 1.61022 10.7709C1.65878 14.2669 4.75355 17.354 8.24956 17.3872C11.5616 17.584 14.7407 15.0387 15.2773 11.765C15.7297 9.45478 14.8889 6.94522 13.1281 5.38122C11.5232 3.90667 9.20022 3.29589 7.07144 3.75078Z" fill="#4B50BA"/>
<path d="M14.2296 2.17402C14.7279 1.83158 15.2262 2.32991 15.5738 2.65447C15.975 3.01991 16.4631 3.66391 15.952 4.15458C15.2441 4.78069 14.5056 3.85558 14.0813 3.33936C13.7338 3.0148 13.8156 2.40658 14.2296 2.17402Z" fill="#4B50BA"/>
<path d="M7.78699 5.64188C7.95565 4.9621 9.06988 4.97232 9.21554 5.66232C9.35099 6.80465 9.21554 7.95465 9.28454 9.1021C9.6091 9.51865 10.0717 9.90965 10.0282 10.4949C10.0717 11.075 9.61421 11.466 9.30499 11.8928C9.25388 12.5035 9.39443 13.5667 8.49999 13.5718C7.60554 13.5667 7.74354 12.5035 7.69499 11.8928C7.38832 11.4711 6.92577 11.0852 6.97177 10.5077C6.92066 9.91732 7.39088 9.52121 7.71799 9.1021C7.78443 7.94954 7.64899 6.79188 7.78699 5.64188Z" fill="#4B50BA"/>
</svg>
