<svg width="27" height="27" viewBox="0 0 27 27" fill="none" xmlns="http://www.w3.org/2000/svg">
<g clip-path="url(#clip0_2_947)">
<g opacity="0.85">
<path d="M12.2259 2.09673C13.3461 1.38387 14.5102 1.92792 15.594 2.43446C15.8123 2.53646 16.0273 2.63694 16.238 2.72533C17.6523 3.40903 19.0926 4.03883 20.5329 4.66864C22.7187 5.62439 24.9046 6.5802 27 7.72455V9.03236C25.1421 10.2377 23.1036 11.0997 21.0644 11.962C19.8205 12.4879 18.5764 13.014 17.3728 13.6181C16.9656 13.7731 16.5504 13.9795 16.1294 14.1888C14.7623 14.8684 13.3339 15.5784 11.918 14.656C10.4045 13.9154 8.85502 13.244 7.3055 12.5726C4.82073 11.4959 2.33595 10.4192 0 9.05767V7.81736C2.41796 6.42258 4.98363 5.31187 7.549 4.20128C9.11941 3.52143 10.6897 2.84162 12.2259 2.09673ZM0.84375 8.27298C0.852188 8.31728 0.865899 8.38267 0.87961 8.44806C0.893321 8.51345 0.907031 8.57884 0.915469 8.62314C3.42963 9.86353 5.99695 10.9992 8.56412 12.1348C10.2142 12.8647 11.8642 13.5946 13.5 14.3522C15.2029 13.5557 16.9253 12.799 18.6477 12.0423C21.1583 10.9394 23.6687 9.83653 26.1183 8.61048V8.26454C23.4517 6.93669 20.7219 5.73345 17.9924 4.53029C16.4899 3.86803 14.9875 3.2058 13.4958 2.52283C11.6473 3.394 9.77672 4.21917 7.90602 5.04438C5.53708 6.08937 3.16802 7.13442 0.84375 8.27298Z" fill="#4B50BE"/>
<path d="M12.2259 2.09673C13.3461 1.38387 14.5102 1.92792 15.594 2.43446C15.8123 2.53646 16.0273 2.63694 16.238 2.72533C17.6523 3.40903 19.0926 4.03883 20.5329 4.66864C22.7187 5.62439 24.9046 6.5802 27 7.72455V9.03236C25.1421 10.2377 23.1036 11.0997 21.0644 11.962C19.8205 12.4879 18.5764 13.014 17.3728 13.6181C16.9656 13.7731 16.5504 13.9795 16.1294 14.1888C14.7623 14.8684 13.3339 15.5784 11.918 14.656C10.4045 13.9154 8.85502 13.244 7.3055 12.5726C4.82073 11.4959 2.33595 10.4192 0 9.05767V7.81736C2.41796 6.42258 4.98363 5.31187 7.549 4.20128C9.11941 3.52143 10.6897 2.84162 12.2259 2.09673ZM0.84375 8.27298C0.852188 8.31728 0.865899 8.38267 0.87961 8.44806C0.893321 8.51345 0.907031 8.57884 0.915469 8.62314C3.42963 9.86353 5.99695 10.9992 8.56412 12.1348C10.2142 12.8647 11.8642 13.5946 13.5 14.3522C15.2029 13.5557 16.9253 12.799 18.6477 12.0423C21.1583 10.9394 23.6687 9.83653 26.1183 8.61048V8.26454C23.4517 6.93669 20.7219 5.73345 17.9924 4.53029C16.4899 3.86803 14.9875 3.2058 13.4958 2.52283C11.6473 3.394 9.77672 4.21917 7.90602 5.04438C5.53708 6.08937 3.16802 7.13442 0.84375 8.27298Z" stroke="#3C3FAA"/>
</g>
<g opacity="0.85">
<path d="M0 12.8883C1.18547 11.9433 2.62828 11.3696 4.14703 11.2683C3.4265 11.9794 2.54973 12.4608 1.67454 12.9413C1.38139 13.1023 1.08842 13.2632 0.801562 13.4325C1.20087 13.9041 1.76589 14.1623 2.32015 14.4155C2.44518 14.4726 2.56966 14.5295 2.69156 14.5885C5.10751 15.6319 7.50471 16.7129 9.90191 17.7938C11.1005 18.3343 12.2991 18.8747 13.5 19.4105C15.1584 18.6325 16.8375 17.8978 18.5166 17.1632C21.1258 16.0215 23.7349 14.88 26.2659 13.576C25.8563 13.288 25.4253 13.0304 24.9943 12.7728C24.2446 12.3246 23.4947 11.8764 22.8572 11.2683C24.3633 11.3611 25.7386 12.0024 27 12.7871V14.0949C25.1302 15.302 23.0816 16.1697 21.0332 17.0374C19.7957 17.5617 18.5582 18.0859 17.3602 18.6849C16.9547 18.8393 16.541 19.0452 16.1213 19.2542C14.7638 19.9299 13.3441 20.6366 11.9391 19.7311C10.4243 18.9899 8.87343 18.3176 7.3228 17.6454C4.83132 16.5653 2.34033 15.4854 0 14.1202V12.8883Z" fill="#4B50BE"/>
<path d="M0 12.8883C1.18547 11.9433 2.62828 11.3696 4.14703 11.2683C3.4265 11.9794 2.54973 12.4608 1.67454 12.9413C1.38139 13.1023 1.08842 13.2632 0.801562 13.4325C1.20087 13.9041 1.76589 14.1623 2.32015 14.4155C2.44518 14.4726 2.56966 14.5295 2.69156 14.5885C5.10751 15.6319 7.50471 16.7129 9.90191 17.7938C11.1005 18.3343 12.2991 18.8747 13.5 19.4105C15.1584 18.6325 16.8375 17.8978 18.5166 17.1632C21.1258 16.0215 23.7349 14.88 26.2659 13.576C25.8563 13.288 25.4253 13.0304 24.9943 12.7728C24.2446 12.3246 23.4947 11.8764 22.8572 11.2683C24.3633 11.3611 25.7386 12.0024 27 12.7871V14.0949C25.1302 15.302 23.0816 16.1697 21.0332 17.0374C19.7957 17.5617 18.5582 18.0859 17.3602 18.6849C16.9547 18.8393 16.541 19.0452 16.1213 19.2542C14.7638 19.9299 13.3441 20.6366 11.9391 19.7311C10.4243 18.9899 8.87343 18.3176 7.3228 17.6454C4.83132 16.5653 2.34033 15.4854 0 14.1202V12.8883Z" stroke="#3C3FAA"/>
</g>
<g opacity="0.85">
<path d="M0 17.9508C1.18547 17.0058 2.62828 16.4363 4.14281 16.3308C3.38711 17.0702 2.46792 17.5758 1.55032 18.0804C1.27949 18.2293 1.00881 18.3782 0.7425 18.533C1.78167 19.2896 2.96103 19.7869 4.13974 20.2839C4.54493 20.4548 4.95005 20.6256 5.34938 20.8069C5.51484 20.8809 5.68033 20.9549 5.84582 21.0289C8.39767 22.17 10.9526 23.3124 13.5 24.4772C15.0336 23.7682 16.5815 23.0883 18.1295 22.4084C20.8737 21.203 23.6179 19.9976 26.2828 18.63C25.9242 18.3949 25.5553 18.1752 25.1866 17.9558C24.3714 17.4704 23.5573 16.9857 22.8572 16.335C24.3633 16.4194 25.7386 17.0649 27 17.8496V19.1574C25.2212 20.3262 23.2645 21.1562 21.3074 21.9863C20.1917 22.4595 19.076 22.9328 17.993 23.4689C17.5292 23.6634 17.0729 23.8811 16.6162 24.099C15.6064 24.5808 14.5952 25.0633 13.5 25.2957C11.7429 24.7685 10.0807 23.9787 8.41854 23.1888C7.36696 22.6891 6.31536 22.1893 5.23969 21.7561C4.77116 21.5403 4.29611 21.3361 3.82091 21.1317C2.50326 20.5652 1.18441 19.9981 0 19.1827V17.9508Z" fill="#4B50BE"/>
<path d="M0 17.9508C1.18547 17.0058 2.62828 16.4363 4.14281 16.3308C3.38711 17.0702 2.46792 17.5758 1.55032 18.0804C1.27949 18.2293 1.00881 18.3782 0.7425 18.533C1.78167 19.2896 2.96103 19.7869 4.13974 20.2839C4.54493 20.4548 4.95005 20.6256 5.34938 20.8069C5.51484 20.8809 5.68033 20.9549 5.84582 21.0289C8.39767 22.17 10.9526 23.3124 13.5 24.4772C15.0336 23.7682 16.5815 23.0883 18.1295 22.4084C20.8737 21.203 23.6179 19.9976 26.2828 18.63C25.9242 18.3949 25.5553 18.1752 25.1866 17.9558C24.3714 17.4704 23.5573 16.9857 22.8572 16.335C24.3633 16.4194 25.7386 17.0649 27 17.8496V19.1574C25.2212 20.3262 23.2645 21.1562 21.3074 21.9863C20.1917 22.4595 19.076 22.9328 17.993 23.4689C17.5292 23.6634 17.0729 23.8811 16.6162 24.099C15.6064 24.5808 14.5952 25.0633 13.5 25.2957C11.7429 24.7685 10.0807 23.9787 8.41854 23.1888C7.36696 22.6891 6.31536 22.1893 5.23969 21.7561C4.77116 21.5403 4.29611 21.3361 3.82091 21.1317C2.50326 20.5652 1.18441 19.9981 0 19.1827V17.9508Z" stroke="#3C3FAA"/>
</g>
</g>
<defs>
<clipPath id="clip0_2_947">
<rect width="27" height="27" fill="white"/>
</clipPath>
</defs>
</svg>
