<svg width="20" height="20" viewBox="0 0 20 20" fill="none" xmlns="http://www.w3.org/2000/svg">
<path d="M9.9625 1.5875C9.94531 1.59063 9.92812 1.59531 9.9125 1.6C9.72656 1.64219 9.59531 1.80938 9.6 2V4.4C9.59844 4.54375 9.67344 4.67813 9.79844 4.75156C9.92344 4.82344 10.0766 4.82344 10.2016 4.75156C10.3266 4.67813 10.4016 4.54375 10.4 4.4V2C10.4047 1.88438 10.3578 1.77344 10.275 1.69531C10.1906 1.61563 10.0766 1.57656 9.9625 1.5875ZM4.2625 3.9375C4.1125 3.96406 3.99219 4.07344 3.95 4.21875C3.90781 4.36563 3.95156 4.52188 4.0625 4.625L5.7625 6.325C5.85937 6.44375 6.01406 6.49844 6.16406 6.46406C6.3125 6.42969 6.42969 6.3125 6.46406 6.16406C6.49844 6.01406 6.44375 5.85938 6.325 5.7625L4.625 4.0625C4.54219 3.97344 4.42187 3.92813 4.3 3.9375C4.2875 3.9375 4.275 3.9375 4.2625 3.9375ZM15.6125 3.9375C15.5219 3.95 15.4375 3.99531 15.375 4.0625L13.675 5.7625C13.5562 5.85938 13.5016 6.01406 13.5359 6.16406C13.5703 6.3125 13.6875 6.42969 13.8359 6.46406C13.9859 6.49844 14.1406 6.44375 14.2375 6.325L15.9375 4.625C16.0625 4.50625 16.0984 4.32031 16.025 4.16406C15.95 4.00625 15.7844 3.91563 15.6125 3.9375ZM9.9625 6C9.95 6.00313 9.9375 6.00781 9.925 6.0125C9.9 6.01406 9.875 6.01875 9.85 6.025C9.84531 6.02969 9.84219 6.03281 9.8375 6.0375C7.71562 6.12813 6 7.85625 6 10C6 12.2016 7.79844 14 10 14C12.2016 14 14 12.2016 14 10C14 7.86406 12.2984 6.14219 10.1875 6.0375C10.1734 6.0375 10.1641 6.025 10.15 6.025C10.1094 6.00938 10.0672 6.00156 10.025 6C10.0172 6 10.0078 6 10 6C9.9875 6 9.975 6 9.9625 6ZM9.975 6.8C9.98281 6.8 9.99219 6.8 10 6.8C10.0125 6.8 10.025 6.8 10.0375 6.8C11.7875 6.82031 13.2 8.24531 13.2 10C13.2 11.7688 11.7687 13.2 10 13.2C8.23281 13.2 6.8 11.7688 6.8 10C6.8 8.24063 8.21875 6.81406 9.975 6.8ZM1.8875 9.6C1.66719 9.63125 1.5125 9.83594 1.54375 10.0563C1.575 10.2766 1.77969 10.4313 2 10.4H4.4C4.54375 10.4016 4.67812 10.3266 4.75156 10.2016C4.82344 10.0766 4.82344 9.92344 4.75156 9.79844C4.67812 9.67344 4.54375 9.59844 4.4 9.6H2C1.9875 9.6 1.975 9.6 1.9625 9.6C1.95 9.6 1.9375 9.6 1.925 9.6C1.9125 9.6 1.9 9.6 1.8875 9.6ZM15.4875 9.6C15.2672 9.63125 15.1125 9.83594 15.1437 10.0563C15.175 10.2766 15.3797 10.4313 15.6 10.4H18C18.1437 10.4016 18.2781 10.3266 18.3516 10.2016C18.4234 10.0766 18.4234 9.92344 18.3516 9.79844C18.2781 9.67344 18.1437 9.59844 18 9.6H15.6C15.5875 9.6 15.575 9.6 15.5625 9.6C15.55 9.6 15.5375 9.6 15.525 9.6C15.5125 9.6 15.5 9.6 15.4875 9.6ZM6 13.55C5.90937 13.5625 5.825 13.6078 5.7625 13.675L4.0625 15.375C3.94375 15.4719 3.88906 15.6266 3.92343 15.7766C3.95781 15.925 4.075 16.0422 4.22344 16.0766C4.37344 16.1109 4.52812 16.0563 4.625 15.9375L6.325 14.2375C6.44375 14.1234 6.47968 13.9469 6.41562 13.7953C6.35312 13.6438 6.20156 13.5469 6.0375 13.55C6.025 13.55 6.0125 13.55 6 13.55ZM13.875 13.55C13.725 13.5766 13.6047 13.6859 13.5625 13.8313C13.5203 13.9781 13.5641 14.1344 13.675 14.2375L15.375 15.9375C15.4719 16.0563 15.6266 16.1109 15.7766 16.0766C15.925 16.0422 16.0422 15.925 16.0766 15.7766C16.1109 15.6266 16.0562 15.4719 15.9375 15.375L14.2375 13.675C14.1625 13.5953 14.0594 13.5516 13.95 13.55C13.9375 13.55 13.925 13.55 13.9125 13.55C13.9 13.55 13.8875 13.55 13.875 13.55ZM9.9625 15.1875C9.94531 15.1906 9.92812 15.1953 9.9125 15.2C9.72656 15.2422 9.59531 15.4094 9.6 15.6V18C9.59844 18.1438 9.67344 18.2781 9.79844 18.3516C9.92344 18.4234 10.0766 18.4234 10.2016 18.3516C10.3266 18.2781 10.4016 18.1438 10.4 18V15.6C10.4047 15.4844 10.3578 15.3734 10.275 15.2953C10.1906 15.2156 10.0766 15.1766 9.9625 15.1875Z" fill="#6B707A"/>
</svg>
