<svg width="18" height="20" viewBox="0 0 18 20" fill="none" xmlns="http://www.w3.org/2000/svg">
<path d="M8.202 0H9.746C11.832 0.14 13.992 0.488 15.794 1.616C16.682 2.168 17.464 3.09 17.398 4.196C17.392 8.126 17.42 12.058 17.384 15.99C17.112 15.996 16.842 16 16.57 16.004C16.588 15.256 16.62 14.508 16.602 13.76C15.076 15.12 13.014 15.636 11.034 15.882C8.57 16.144 6.016 15.98 3.678 15.114C2.838 14.814 2.074 14.338 1.396 13.762C1.418 14.488 1.338 15.22 1.458 15.942C1.712 16.75 2.48 17.248 3.19 17.63C5.142 18.596 7.362 18.814 9.512 18.802C9.73001 19.05 9.936 19.308 10.13 19.576C7.568 19.67 4.886 19.438 2.59 18.208C1.564 17.65 0.532004 16.694 0.602004 15.426C0.600004 11.678 0.598004 7.928 0.602004 4.18C0.536004 2.97 1.468 2.016 2.452 1.466C4.196 0.466 6.226 0.142 8.202 0ZM7.088 0.908C5.258 1.156 3.278 1.564 1.906 2.892C1.206 3.504 1.288 4.626 1.994 5.198C3.476 6.524 5.536 6.912 7.45 7.128C10.028 7.322 12.756 7.112 15.074 5.882C15.864 5.446 16.804 4.668 16.548 3.652C16.176 2.6 15.076 2.072 14.118 1.66C11.888 0.822 9.444 0.664 7.088 0.908ZM1.396 5.752C1.434 6.618 1.332 7.49 1.452 8.35C1.758 9.246 2.64 9.762 3.448 10.15C5.662 11.118 8.146 11.32 10.534 11.128C12.24 10.954 13.992 10.6 15.45 9.65C16.002 9.276 16.572 8.738 16.588 8.026C16.626 7.268 16.584 6.508 16.604 5.75C15.78 6.506 14.76 7.006 13.696 7.33C11.144 8.106 8.402 8.176 5.786 7.704C4.206 7.392 2.604 6.858 1.396 5.752ZM1.396 9.752C1.456 10.662 1.282 11.602 1.502 12.494C2.124 13.734 3.55 14.248 4.792 14.64C7.186 15.31 9.74001 15.358 12.174 14.892C13.416 14.638 14.668 14.244 15.694 13.474C16.148 13.12 16.586 12.624 16.59 12.014C16.626 11.26 16.584 10.506 16.604 9.75C15.782 10.504 14.764 11.004 13.702 11.328C11.206 12.088 8.526 12.172 5.964 11.736C4.322 11.432 2.652 10.896 1.396 9.752Z" fill="#4C51B9"/>
</svg>
